<svg xmlns="http://www.w3.org/2000/svg" viewBox="0 0 600 350" width="100%" height="100%">
  <defs>
    <linearGradient id="aiwBg" x1="0%" y1="0%" x2="100%" y2="100%">
      <stop offset="0%" stop-color="#0f172a" />
      <stop offset="100%" stop-color="#1e293b" />
    </linearGradient>
    <linearGradient id="aiwCyan" x1="0%" y1="0%" x2="100%" y2="0%">
      <stop offset="0%" stop-color="#06b6d4" />
      <stop offset="100%" stop-color="#3b82f6" />
    </linearGradient>
  </defs>
  <rect width="600" height="350" fill="url(#aiwBg)"/>
  <rect x="40" y="30" width="520" height="290" rx="12" fill="#1e293b" stroke="#0284c7" stroke-width="1.5" />
  <rect x="40" y="30" width="520" height="38" rx="12" fill="#0f172a" />
  <circle cx="65" cy="49" r="5" fill="#ef4444" />
  <circle cx="82" cy="49" r="5" fill="#f59e0b" />
  <circle cx="99" cy="49" r="5" fill="#10b981" />
  <rect x="125" y="41" width="220" height="16" rx="8" fill="#0f172a" />
  <text x="135" y="53" font-family="monospace" font-size="10" fill="#38bdf8">https://ai-workspace.lab</text>

  <!-- Banner inside mockup -->
  <rect x="60" y="85" width="480" height="75" rx="8" fill="#0f172a" stroke="#0284c7" stroke-width="1.2" />
  <text x="85" y="118" font-family="system-ui, sans-serif" font-size="18" font-weight="700" fill="#ffffff">AI Developer Workspace</text>
  <text x="85" y="140" font-family="system-ui, sans-serif" font-size="12" fill="#bae6fd">Multi-tool LLM Studio &amp; Code Prompt Workbench</text>

  <!-- Prompt & Output Mockup -->
  <rect x="60" y="175" width="225" height="120" rx="8" fill="#0f172a" stroke="#334155" />
  <text x="75" y="200" font-family="system-ui, sans-serif" font-size="11" font-weight="bold" fill="#38bdf8">PROMPT WORKSPACE</text>
  <rect x="75" y="215" width="195" height="12" rx="3" fill="#1e293b" />
  <rect x="75" y="235" width="160" height="12" rx="3" fill="#1e293b" />
  <rect x="75" y="260" width="80" height="22" rx="4" fill="#0284c7" />

  <rect x="305" y="175" width="235" height="120" rx="8" fill="#0f172a" stroke="#0284c7" />
  <text x="320" y="200" font-family="system-ui, sans-serif" font-size="11" font-weight="bold" fill="#10b981">GEMINI MODEL STREAM</text>
  <rect x="320" y="215" width="205" height="10" rx="2" fill="#1e293b" />
  <rect x="320" y="232" width="190" height="10" rx="2" fill="#1e293b" />
  <rect x="320" y="249" width="170" height="10" rx="2" fill="#1e293b" />
  <rect x="320" y="266" width="120" height="10" rx="2" fill="#1e293b" />
</svg>
